<svg xmlns="http://www.w3.org/2000/svg" xmlns:xlink="http://www.w3.org/1999/xlink" viewBox="0 0 512 512"><defs><style>.a{fill:url(#a);}.b{fill:#2b424a;}.c{fill:url(#b);}</style><linearGradient id="a" x1="72.452" y1="72.452" x2="440.361" y2="440.361" gradientUnits="userSpaceOnUse"><stop offset="0" stop-color="#f1dca9"/><stop offset="1" stop-color="#dfbc7d"/></linearGradient><linearGradient id="b" x1="77.03" y1="67.874" x2="444.939" y2="435.783" xlink:href="#a"/></defs><circle class="a" cx="256" cy="256" r="256"/><circle class="b" cx="256" cy="256.001" r="236"/><path class="c" d="M123.1,148.372h33.814v215.17H123.1Zm53.182,164.142v-12.3h31.968v14.754c0,15.373,6.762,20.9,17.521,20.9s17.521-5.532,17.521-21.518c0-17.828-6.764-29.2-28.9-48.569-28.278-24.9-37.5-42.416-37.5-67.007,0-33.814,17.52-53.487,50.411-53.487s49.183,19.673,49.183,54.1v8.916H244.516V197.247c0-15.37-6.148-21.209-16.907-21.209s-16.9,5.839-16.9,20.593c0,15.678,7.068,27.051,29.2,46.417,28.28,24.9,37.193,42.111,37.193,68.853,0,35.041-17.827,54.714-51.025,54.714S176.277,346.942,176.277,312.514ZM296.471,148.372h33.814v90.68l43.037-90.68h33.809l-40.269,79,40.887,136.172H372.4l-28.587-95.9L330.285,295v68.546H296.471Z"/></svg>