<svg xmlns="http://www.w3.org/2000/svg" xmlns:xlink="http://www.w3.org/1999/xlink" viewBox="0 0 600 600"><defs><style>.a,.c,.h,.j{fill:none;}.b{fill:#acd5e9;}.c{stroke:#00c4e9;stroke-width:3.237px;}.c,.h,.j,.l,.o{stroke-linecap:round;}.c,.j{stroke-miterlimit:10;}.d{fill:#727171;}.e{fill:#90c0cf;}.f{fill:#fff;}.g{fill:#a48b78;}.h,.j,.l,.o{stroke:#3e3a39;stroke-width:3.346px;}.h,.l,.o{stroke-linejoin:round;}.i{fill:#3e3a39;}.k{fill:#e0ca80;}.l{fill:#d4aa58;}.m{fill:#ccc;}.n{fill:url(#a);}.o{fill:#22c6de;}</style><pattern id="a" width="19.216" height="19.216" patternTransform="translate(388.25 546.901) rotate(-45) scale(0.153)" patternUnits="userSpaceOnUse" viewBox="0 0 19.216 19.216"><rect class="a" width="19.216" height="19.216"/><circle class="b" cx="9.608" cy="9.608" r="6.14"/><rect class="a" width="19.216" height="19.216"/></pattern></defs><line class="c" x1="202.449" y1="101.009" x2="200.224" y2="107.816"/><line class="c" x1="192.811" y1="100.418" x2="193.947" y2="106.54"/><line class="c" x1="210.615" y1="105.698" x2="206.325" y2="110.211"/><path class="d" d="M143.445,484.763l2.8,29.673-2.8,15.9s6.758,8.024,12.363,7.448c0,0,10.438-4.672,14.445,3.516,0,0,9.686,22.023,35.089,13.651,0,0,8.638,1.523,6.475-11.425,0,0-6.042-10.766-15.739-12.462l-9.939-3.879-11.7-12.629-1.126-8.6,4.708-28.95Z"/><path class="d" d="M102.539,478.7l3.142,48.732v3.381S91,572.662,117.355,572.47c0,0,18.166,5.141,21.172-13.041a21.569,21.569,0,0,0-4.638-15.584l-3.757-12.811,3.757-47.483L117.355,469.49Z"/><path class="e" d="M99.5,296.978s-6.277,126.711-2.041,164.59c0,0-2.533,25.4,5.079,26.116,0,0,25.52,5.674,33.978-1.364l4.307-43.434.5,46.718s31.774,2.074,37.554-1.92c0,0,4.454-13.164,3.1-21.439,0,0,12.19-112.524,7.99-168.326l-2.641-25.07-87.824,6.6Z"/><path class="e" d="M95.973,183.093,69.04,212.781l29.4,28.448-12.3,26.429L39.565,231.58s-7.053-12.33-.626-23.072l39.239-57.769,10.087-8.4,20.832-8Z"/><polygon class="e" points="160.247 124.267 190.348 136.97 186.214 159.599 148.361 177.276 160.247 124.267"/><polygon class="e" points="130.47 124.892 99.321 138.696 103.454 161.325 147.236 176.092 130.47 124.892"/><path class="e" d="M199.322,140.423s8.913,5.229,11.46,11.025l1.021,7.018,2.332,29.167-24.71-.585Z"/><path class="f" d="M131.77,114.563a152.976,152.976,0,0,1-2.816,16.3l4.062,21.519L146.8,190.161l10.137-27.982,3.507-25.047.04-6.254a30.033,30.033,0,0,1,0-12.308l-17.745-6.312Z"/><polygon class="e" points="95.338 155.33 115.223 142.409 146.578 181.645 181.701 136.97 191.383 162.88 191.467 283.657 191.285 294.024 144.99 298.894 98.608 297.919 95.338 155.33"/><path class="f" d="M155.1,45.439s-26.36-11.827-39.538,11.505L113.3,66.3S111.75,81.278,120.029,84l28.719-8.137Z"/><path class="f" d="M177.763,84.829c-3.014-3.71-7.1-1.241-7.1-1.241l-.179-19.147L158.737,58.2l-13.463.174-1.842.023-13.464.174L118.39,65.113l.328,20.01s-3.849-3.7-6.767.088c0,0-3.8,8.306,7.378,15.826,0,0,3.027-.761,3.753-2.08,0,0,5.6,20.3,22.042,19.191,16.467.68,21.778-19.419,21.778-19.419.76,1.3,3.569,1.648,3.569,1.648C182.451,92.642,177.763,84.829,177.763,84.829Z"/><path class="f" d="M117.228,82.7S105.086,58.624,127,45.559c0,0,14.1-7.995,28.881.945,0,0,22.241.684,19.848,22.929l-4.025,14.791Z"/><path class="g" d="M155.5,45.584c-27.57-10.375-47.387,17.885-41.4,33.6l2.062,3.971,1.848.854,1.541-3.294,7.584-19.9s11.482,10.432,23.652,7.259l3.57.726,7.18.283,6.13,3.266,3.887,10.7,2.338-.318.577-3.9c5.893-31.011-15.839-32.211-15.839-32.211Z"/><path class="h" d="M167.445,94.38s-1.179,13.209-9.927,19.129c0,0-5.612,4.553-12.362,4.592-6.749.136-12.476-4.271-12.476-4.271-8.9-5.693-10.418-18.867-10.418-18.867"/><path class="h" d="M153.555,73.717a8.5,8.5,0,0,1,5.266-.307"/><path class="h" d="M136.645,74.322a8.5,8.5,0,0,0-5.275-.08"/><path class="h" d="M138.254,101.417a15.636,15.636,0,0,0,14.421-.055"/><path class="i" d="M155.449,85.327h0a2.272,2.272,0,0,1-2.3-2.236h0A2.272,2.272,0,0,1,155.39,80.8h0a2.273,2.273,0,0,1,2.3,2.236h0A2.272,2.272,0,0,1,155.449,85.327Z"/><path class="i" d="M134.463,85.6h0a2.272,2.272,0,0,1-2.295-2.236h0a2.272,2.272,0,0,1,2.236-2.294h0a2.272,2.272,0,0,1,2.3,2.236h0A2.272,2.272,0,0,1,134.463,85.6Z"/><line class="j" x1="145.464" y1="94.623" x2="144.413" y2="94.591"/><path class="h" d="M125.144,65.75s-2.781,11.147-5.115,14.941"/><path class="h" d="M113.184,73.984a15.847,15.847,0,0,0,2.382,6.111"/><path class="h" d="M170.733,84.452s2.1-3.2,6.121-.9c0,0,4.032,3.525-.777,11.049,0,0-4.98,8.885-8.58,3.806"/><path class="h" d="M131.77,113.56s.4,7.363-.521,11.332"/><path class="h" d="M159.387,113.56a59.425,59.425,0,0,0,.86,10.707"/><path class="h" d="M114.915,58.193s11.24-25.072,40.9-12.59"/><path class="h" d="M119.186,84.693s-2.169-3.109-6.091-.731c0,0-3.907,3.593,1.053,10.916,0,0,5.165,8.667,8.6,3.548"/><path class="h" d="M127.929,59.722a23.164,23.164,0,0,0,14.2,9.552"/><path class="h" d="M140.463,59.21a19.4,19.4,0,0,0,11.646,10.064"/><path class="h" d="M155.1,61.8s5.177,8.272,12.829,10.044l2.688,7.513"/><path class="h" d="M205.429,143.821c2.323,1.856,6.792,5.924,6.792,16.527"/><path class="h" d="M147.509,316.2s-8.982,128.555-10.992,171.487h0"/><path class="h" d="M98.665,302.4s-6.271,124.6-1.205,159.163c0,0-1.846,19.228,2.041,24.752"/><path class="h" d="M102.431,491.332l3.25,36.1a18.864,18.864,0,0,1-.34,5.653c-1.417,6.609-3.029,14.839-3.828,18.97a16.872,16.872,0,0,0,.756,9.352c3.153,8.05,11.482,10.327,16.79,10.944a17.96,17.96,0,0,0,9-1.3c18.236-7.632,7.1-24.713,7.1-24.713a47.992,47.992,0,0,1-4.595-12.536,19.826,19.826,0,0,1-.473-5.58l2.078-36.5"/><path class="h" d="M133.889,560.394s-10.352,12.151-26.677,1.293"/><path class="h" d="M189.966,299.344s1.362,117.708-7.99,166.9c0,0-.259,14.484-3.1,21.439"/><line class="h" x1="141.326" y1="489.604" x2="140.824" y2="442.886"/><path class="h" d="M166.436,322.74a62.726,62.726,0,0,1-16.175,16.124"/><path class="h" d="M144.926,492.319l1.316,22.117a15.056,15.056,0,0,1-.422,4.535L143.563,528a5.4,5.4,0,0,0,1.937,5.392c4.262,3.289,10.308,4.4,10.308,4.4l4.354-.544c9.441-.581,11.369,6.51,11.369,6.51,8.814,14.732,29.314,14.863,38.571,9.041,3.328-2.093,2.378-6.822,2.378-6.822-2.06-12.288-20.9-16.386-20.9-16.386-3.521-1.463-10.073-6.984-14.863-11.858a12.758,12.758,0,0,1-3.553-10.64l1.981-14.768"/><path class="j" d="M190.933,228.828s.672,32.263.317,52.42"/><path class="j" d="M97.276,235.948c-1.667-34.325-3.338-70.126-3.338-70.126"/><path class="j" d="M98.28,283.623c-.17-3.031-.213-3.851-.447-8.355"/><path class="j" d="M102.881,284.777s24.639.352,36.638-.485"/><path class="j" d="M186.588,283.016s-22.542,1.839-34.541,1"/><path class="j" d="M102.881,297.686s49.94,3.894,84.444-2.577"/><line class="j" x1="98.28" y1="288.183" x2="98.608" y2="297.919"/><line class="j" x1="191.587" y1="285.503" x2="191.328" y2="295.109"/><path class="j" d="M102.023,186.9l.506,3.332a1.307,1.307,0,0,0,1.362,1.108l11.267,3.075,14.731-4.494a1.957,1.957,0,0,0,1.843-1.785l.405-4.707a2.141,2.141,0,0,0-2.258-2.322l-28.4,1.659"/><path class="j" d="M114.767,195.611s-.075,16.322.784,20.3"/><path class="j" d="M102.427,195.435s-.431,12.382,1.4,19.3a2.706,2.706,0,0,0,2.682,1.956c4.4-.049,15.009-.271,21.344-1.273a2.567,2.567,0,0,0,2.221-2.6c-.2-4.855,0-18.95,0-22"/><path class="j" d="M188.939,188.2l-.506,3.332a1.305,1.305,0,0,1-1.362,1.107L175.8,195.719l-14.731-4.494a1.957,1.957,0,0,1-1.843-1.785l-.405-4.707a2.141,2.141,0,0,1,2.258-2.322l28.4,1.659"/><path class="j" d="M176.2,196.912s.075,16.323-.784,20.295"/><path class="j" d="M188.535,196.737s.431,12.382-1.4,19.3A2.707,2.707,0,0,1,184.454,218c-4.4-.049-15.008-.272-21.344-1.273a2.567,2.567,0,0,1-2.221-2.6c.2-4.855,0-18.95,0-22"/><path class="h" d="M175.791,73.118a59.915,59.915,0,0,1-.848,6.061"/><polyline class="h" points="124.936 126.556 119.231 129.411 111.633 158.767 123.279 157.858 140.145 183.224"/><polyline class="h" points="153.255 184.018 164.437 156.567 177.185 158.715 176.805 154.389"/><line class="h" x1="164.437" y1="125.247" x2="171.69" y2="127.863"/><path class="f" d="M95.051,242.425l21.977-2.6,18.119,9.956s1.626,5.555-4.873,4.683l-9.074-5.59-8.745,1.454-1.485,3,11.321,4.422,9.678,8.929s1.659,3.915-3.874,3.712c0,0,.492,8.245-9.371,3.339,0,0-.015,7.531-7.463,3.614l-6.777-3.731-17.147-4.909s-6.612-10.515-1.686-19.833l4.148-4.992Z"/><path class="f" d="M204.458,155.565l-4.94-32.216-16.277-3.377a4.826,4.826,0,0,0-4.342,5.034s-5.174-.156-4.977,6.7c0,0-4.913-.518-2.859,6.3a4.614,4.614,0,0,0-1.227,6.449l4.11,4.223,7.709,5.35,2.681,8.819S199.583,165.625,204.458,155.565Z"/><path class="e" d="M207.035,155.366c-10.124,7.731-24.611,8.11-24.611,8.11l3.069,9.807a2.539,2.539,0,0,0,2.465,2.123c4.557.073,15.32-.589,21.222-7.906a3.094,3.094,0,0,0,.543-2.87Z"/><path class="e" d="M209.865,167.379a31.7,31.7,0,0,1,4.253,5.086,17.388,17.388,0,0,1,2.216,5.3l9.691,40.643a19.164,19.164,0,0,1-6.436,17.349,12.492,12.492,0,0,1-6.443,2.944c-6.565.936-12.452-1.639-15.971-3.149a7.683,7.683,0,0,1-4.5-5.646l-8.218-43.586a9.367,9.367,0,0,1-.159-1.261c-.2-4.052.041-9.651.041-9.651l16.5-2.426Z"/><path class="j" d="M184.336,162.846a34.691,34.691,0,0,0,21.288-7.015"/><path class="j" d="M184.336,166.329l1.157,6.954a2.539,2.539,0,0,0,2.465,2.123c4.557.073,15.32-.589,21.222-7.906a3.094,3.094,0,0,0,.543-2.87l-1.655-5.283"/><path class="j" d="M185.113,176.54a36.909,36.909,0,0,0-.818,8.522,9.367,9.367,0,0,0,.159,1.261l8.218,43.586a7.683,7.683,0,0,0,4.5,5.646c3.519,1.51,9.406,4.085,15.971,3.149a12.492,12.492,0,0,0,6.443-2.944,19.164,19.164,0,0,0,6.436-17.349l-9.691-40.643a17.388,17.388,0,0,0-2.216-5.3,13.32,13.32,0,0,0-2.74-3.3"/><path class="j" d="M204.458,152.383l-4-24.919a6.045,6.045,0,0,0-4.447-4.636l-10.911-2.74a4.936,4.936,0,0,0-4.445,1.022A4.513,4.513,0,0,0,179.31,123"/><path class="j" d="M191.321,129.215l-12.579-3.977a3.841,3.841,0,0,0-3.765.75,3.287,3.287,0,0,0-1.044,2.79"/><path class="j" d="M187.223,135.845l-12.579-3.978a3.845,3.845,0,0,0-3.766.75c-.877.811-1.475,2.162-.688,4.384"/><path class="j" d="M185.418,142.138l-11.9-3.764a3.64,3.64,0,0,0-3.564.71c-.98.906-1.591,2.524-.114,5.37"/><path class="j" d="M173.362,146.762s2.872,4.4,6.06,5.345a3.54,3.54,0,0,1,2.233,1.92l2.413,5.32"/><path class="j" d="M115.071,131.672,88.265,142.337s-9.9,4.425-17.321,16.118L38.939,208.508s-9.37,15.075,3.942,26.578l40,31.3"/><line class="j" x1="70.769" y1="210.892" x2="90.624" y2="189.185"/><line class="j" x1="62.461" y1="208.163" x2="95.688" y2="239.829"/><path class="j" d="M65.662,191.535a39.659,39.659,0,0,1,1.713,16.411"/><path class="h" d="M85.3,264.447s-6.229-15.569,8.634-21.607"/><path class="h" d="M98.139,242.314l19.249-1.866a4.07,4.07,0,0,1,2.508.5L134.6,249.3a1.742,1.742,0,0,1,.883,1.445c.051,1.3-.418,3.434-3.877,3.949a2.249,2.249,0,0,1-1.334-.223l-11.043-5.59-6.776,1.454"/><path class="h" d="M108.957,252.475l12.178,5.207,9.951,7.816a2.288,2.288,0,0,1,.7,2.706,3.667,3.667,0,0,1-2.323,2.076,2.505,2.505,0,0,1-2.176-.326l-7.739-5.251a10.031,10.031,0,0,0-3-1.379l-8.42-3.144"/><path class="h" d="M126.84,271.132s.557,2.988-1.638,3.924a2.921,2.921,0,0,1-2.485-.147l-9.323-4.863-8.91-3.663"/><path class="h" d="M118.724,273.737a6.473,6.473,0,0,1-.728,2.538c-1,1.883-2.49,1.841-4.477,1.073l-8.591-3.605-17.967-5.686"/><path class="e" d="M111.637,69.274l6.793-1.71s1.577,30.4,6.506,37.591C124.936,105.155,114.249,101.4,111.637,69.274Z"/><path class="e" d="M176.805,68.81l-6.184-1.246s-2.87,31.942-7.8,39.134C162.822,106.7,174.192,100.931,176.805,68.81Z"/><path class="h" d="M111.329,70.578s3.287,24.682,13.607,34.577c0,0-5.82-14.649-6.97-37.376"/><path class="h" d="M176.733,69.647s-3.122,29.191-12.3,37.051a140.519,140.519,0,0,0,6.078-38.609"/><path class="f" d="M182.453,70.6l.8-5.537-2.839-5.382c0-17.1-15.915-30.958-35.546-30.958S109.32,42.585,109.32,59.683L105.761,62.8l-.186,5.15.523,3.638s16.758-7.467,40.633-7.062c0,0,19.079-.5,30.928,5.679Z"/><path class="j" d="M108.761,70.6s29.731-13.4,68.9-.4"/><path class="h" d="M117.966,60c8.9-2.04,28.722-5.158,50.648.657"/><path class="h" d="M105.575,67.95l.186-5.15,3.559-3.117c0-17.1,15.915-30.958,35.547-30.958s35.546,13.86,35.546,30.958l2.839,5.382-.8,5.537"/><path class="h" d="M102.539,487.684s19.231,2.43,29.632,0"/><path class="h" d="M146.379,488.764s17.385,2.234,28.767-.54"/><path class="h" d="M179.775,546.426S189.936,555.772,207,549"/><path class="d" d="M129.619,135.461s21.038,8.056,31.268-1.125c0,0-2.885,41.757-15.423,48.071l-.849-3.124S127.94,152.767,129.619,135.461Z"/><path class="j" d="M128.358,125.827s3.581,38.349,16.257,53.456a3.345,3.345,0,0,1,.783,2.114c.127,11.082,1.066,92.973,1.18,101.619"/><path class="j" d="M160.443,123.66s3.127,36.08-11.374,55"/><path class="h" d="M130.378,135.461s15.443,6.791,30.172,0"/><path class="d" d="M372.6,164.763,356.3,209.006s-.916,18.325,14.533,19.178c0,0,10.566,2.706,17.016-10.345l14.664-57.574-20.924-2.973Z"/><polygon class="d" points="379.245 225.908 425.589 194.889 426.806 158.814 390.566 176.237 379.245 225.908"/><path class="d" d="M442.835,159.129l11.813-3.523s13.973,10.894,33.47,1.091l-10.881,62.519H462.6Z"/><path class="e" d="M417.877,174.754l-.275-12.733L454.043,149.9s5.3,51.815,14.015,63.48l4.754.021s11.348-31.487,14.419-62.257L497.781,154l12.08,3.295,10.159,2.851-2.8,83.6s-.444,64.1-.77,73.365l-.537,12.069s-56.007,5.709-87.092,1.294l-5.8-28.147L421.2,243.746Z"/><rect class="k" x="384.286" y="109.872" width="169.985" height="41.113" transform="matrix(0.986, -0.166, 0.166, 0.986, -15.143, 79.738)"/><polyline class="h" points="388.381 123.205 549.677 96.043 556.632 137.345 395.715 164.443"/><polygon class="l" points="390.164 164.597 358.752 168.432 352.401 130.718 383.337 124.054 390.164 164.597"/><line class="h" x1="384.939" y1="133.569" x2="422.764" y2="127.199"/><line class="h" x1="394.142" y1="140.718" x2="431.968" y2="134.349"/><line class="h" x1="391.56" y1="156.376" x2="420.549" y2="151.495"/><line class="h" x1="519.653" y1="124.227" x2="553.464" y2="118.533"/><line class="h" x1="509.987" y1="136.434" x2="543.798" y2="130.74"/><path class="d" d="M518.539,202.9l25.053,29.36-29.4,28.449,12.305,26.429,46.575-36.078s7.052-12.331.626-23.072l-39.239-57.77-10.087-8.4-6.108-1Z"/><path class="d" d="M466.928,529.063l4.78,12.614a6.34,6.34,0,0,1-3.451,6.559c-5.937,1.208-6.442,7.205-6.517,10.156-.028,1.1-2.645,4.194-3.218,5.136-6.515,10.7-14.964,11.906-14.964,11.906-11.633,2.786-17.746.015-20.71-2.49a7.2,7.2,0,0,1-2.383-6.924c1.278-6.529,9.423-14.882,11.978-17.37a13.552,13.552,0,0,0,1.644-1.912,43.922,43.922,0,0,0,5.471-11.427l-3.569-54.65,31.394-1.744Z"/><path class="d" d="M491.4,532.325l-1.8,9.408a6.344,6.344,0,0,0,3.452,6.56c5.937,1.207,6.441,7.2,6.517,10.156.028,1.1,2.644,4.193,3.218,5.136,6.515,10.7,14.963,11.9,14.963,11.9,11.633,2.786,17.746.015,20.71-2.49a7.2,7.2,0,0,0,2.383-6.924c-1.278-6.529-9.423-14.882-11.977-17.37a13.494,13.494,0,0,1-1.645-1.912c-3.665-5.211-8.749-16.816-8.749-16.816l-2.143-48.507-28.849.94Z"/><path class="e" d="M426.817,314.986l.044,1.5,3.4,115.32,4.56,54.015,35.023-.88V375.441l1.989,2.045,9.849,108.34s22.661-1.76,36.822-.88l.8-81L515.648,329.7l-2.107-12.625Z"/><path class="f" d="M455.529,132.558c.346.143,2.155,15.354,0,25.209l13.846,3.361,16.2-3.255a80,80,0,0,1-1.685-27.858Z"/><path class="h" d="M436.577,490.226l2.8,42.35a13.484,13.484,0,0,1-.919,5.85,41.132,41.132,0,0,1-4.373,8.314,13.548,13.548,0,0,1-1.64,1.908c-2.551,2.485-10.7,10.841-11.98,17.372a7.2,7.2,0,0,0,2.383,6.924c2.964,2.5,9.077,5.276,20.71,2.49,0,0,8.449-1.2,14.964-11.906.573-.942,3.19-4.032,3.218-5.136.075-2.951-.427-8.933,5.51-10.141,0,0,3.338-1.652,2.916-6.577l-2.7-9.321a46.484,46.484,0,0,1-.877-7.561l1.261-36.741"/><path class="h" d="M487.948,488.716l3.235,40.926a10.978,10.978,0,0,1-.1,2.561l-1.492,9.53a6.344,6.344,0,0,0,3.452,6.56c5.937,1.207,6.441,7.2,6.517,10.156.028,1.1,2.644,4.193,3.218,5.136,6.515,10.7,14.963,11.9,14.963,11.9,11.633,2.786,17.746.015,20.71-2.49a7.2,7.2,0,0,0,2.383-6.924c-1.278-6.529-9.423-14.882-11.977-17.37a21.269,21.269,0,0,1-1.645-1.912c-4.07-5.03-7.1-11.953-8.228-14.749a7.469,7.469,0,0,1-.539-2.5l-1.724-41.335"/><path class="f" d="M441.685,108.512S429.855,84.285,451.939,71.5c0,0,14.433-9.106,28.866,1.317,0,0,22.231.972,19.55,23.184l-4.216,14.737Z"/><path class="f" d="M502.187,111.426c-2.965-3.749-7.086-1.334-7.086-1.334l.068-19.147-11.662-6.393H454.735l-11.662,6.393.071,20.013s-3.8-3.749-6.768,0c0,0-3.906,8.257,7.173,15.92,0,0,3.036-.722,3.779-2.032,0,0,5.336,20.367,21.793,19.474,16.457.893,22.027-19.136,22.027-19.136.743,1.31,3.547,1.694,3.547,1.694C506.774,119.3,502.187,111.426,502.187,111.426Z"/><path class="h" d="M491.747,120.842s-1.35,13.193-10.174,19c0,0-5.669,4.48-12.42,4.431-6.75.049-12.42-4.431-12.42-4.431-8.823-5.807-10.173-19-10.173-19"/><path class="h" d="M477.251,101.342a8.493,8.493,0,0,1,5.271.207"/><path class="h" d="M460.805,101.458a8.5,8.5,0,0,0-5.276-.026"/><path class="h" d="M477.237,127.032a73.87,73.87,0,0,0-14.42-.132s-.857,6.936,7.316,6.906c0,0,7.118.415,7.1-6.774"/><path class="i" d="M479.868,111.636h0a2.272,2.272,0,0,1-2.265-2.266h0a2.271,2.271,0,0,1,2.265-2.265h0a2.272,2.272,0,0,1,2.266,2.265h0A2.273,2.273,0,0,1,479.868,111.636Z"/><path class="i" d="M458.881,111.636h0a2.273,2.273,0,0,1-2.266-2.266h0a2.272,2.272,0,0,1,2.266-2.265h0a2.271,2.271,0,0,1,2.265,2.265h0A2.272,2.272,0,0,1,458.881,111.636Z"/><line class="j" x1="470.107" y1="120.865" x2="469.057" y2="120.82"/><path class="d" d="M476.74,84.938s-3.187,7.215-16.523,7.977L449.3,95.492l-6.157,15.466S428.808,88.219,458.5,71.328c5.455-3.1,18.753-1.7,21.37.849l3.425.825s17.648.2,17.062,23.3l-.869,12.414-4.26.093L493.01,96.875a29.024,29.024,0,0,1-14.264-10.234Z"/><path class="h" d="M478.041,81.811s.121,7.836-11.463,11.1"/><path class="h" d="M465.451,84.116s-1.793,8.449-13.14,10.331"/><path class="h" d="M478.041,84.938s2.13,7.977,14.969,11.937l2.216,11.937"/><path class="h" d="M448.1,97.441a58.075,58.075,0,0,1-3.59,9.1"/><path class="h" d="M495.163,110.958s2.146-3.169,6.132-.818c0,0,3.986,3.577-.92,11.038,0,0-5.094,8.82-8.628,3.7"/><path class="h" d="M456.25,139.726s.918,6.635,0,10.6"/><path class="h" d="M483.867,139.726s-.918,5.821,0,9.789"/><path class="h" d="M439.688,83.981s15.072-26.709,41.058-12.062"/><path class="h" d="M443.144,110.958s-2.147-3.169-6.132-.818c0,0-3.986,3.577.919,11.038,0,0,5.1,8.82,8.629,3.7"/><path class="h" d="M426.817,323.916s1.356,128.657,8,161.91"/><path class="h" d="M469.84,375.441s.733,99.387,0,109.505"/><path class="h" d="M516.777,322.943s5.424,129.353,1.723,162"/><path class="h" d="M472.419,350.031s5.156,110.936,9.259,135.8"/><path class="h" d="M459.8,363.511s7.665,11.186,13.841,14.507"/><path class="h" d="M438.35,98.423a20.775,20.775,0,0,0,3.335,10.389"/><path class="h" d="M500.327,97.431a67.966,67.966,0,0,1-1.234,10.24"/><path class="h" d="M519.113,161.128s-.3,84.224-2.058,95.068"/><path class="h" d="M425.093,568.6s18.718,11.258,32.256-10.116"/><path class="h" d="M504.683,558.482s14.123,21.949,32.446,9.925"/><path class="j" d="M430.082,306.034s24.639.351,36.639-.485"/><path class="j" d="M512.206,305.756s-24.767.35-36.767-.487"/><path class="j" d="M429.45,320.273s48.253,5.191,82.756-1.28"/><path class="j" d="M424.516,211.829l.506,3.333a1.3,1.3,0,0,0,1.361,1.107l11.268,3.075,14.731-4.493a1.956,1.956,0,0,0,1.842-1.785l.405-4.708a2.141,2.141,0,0,0-2.258-2.321l-28.4,1.659"/><path class="j" d="M437.259,220.538s-.074,16.322.785,20.295"/><path class="j" d="M424.92,220.362s-.432,12.382,1.4,19.3A2.709,2.709,0,0,0,429,241.623c4.4-.049,15.008-.272,21.343-1.274a2.565,2.565,0,0,0,2.221-2.6c-.2-4.854,0-18.95,0-22"/><path class="j" d="M513.052,213.223l-.507,3.333a1.305,1.305,0,0,1-1.361,1.107l-11.267,3.075-14.732-4.493a1.957,1.957,0,0,1-1.842-1.785l-.405-4.708a2.141,2.141,0,0,1,2.258-2.321l28.4,1.659"/><path class="j" d="M500.308,221.932s.075,16.322-.784,20.3"/><path class="j" d="M512.647,221.756s.432,12.382-1.4,19.3a2.709,2.709,0,0,1-2.682,1.957c-4.4-.05-15.009-.272-21.344-1.274a2.567,2.567,0,0,1-2.221-2.6c.2-4.854,0-18.95,0-22"/><path class="h" d="M417.6,166s4.8,117.957,6.317,137.69"/><path class="h" d="M516.777,266.264s1.887,24.934.512,38.322"/><line class="h" x1="425.041" y1="307.644" x2="426.162" y2="320.607"/><line class="h" x1="517.272" y1="307.644" x2="516.281" y2="318.979"/><path class="e" d="M436.185,94.815l6.793-1.711s1.577,30.4,6.506,37.591C449.484,130.7,438.8,126.936,436.185,94.815Z"/><path class="e" d="M501.353,94.35,495.169,93.1s-2.87,31.942-7.8,39.134C487.37,132.238,498.741,126.471,501.353,94.35Z"/><path class="h" d="M435.877,96.118s3.287,24.682,13.607,34.577c0,0-5.82-14.649-6.97-37.376"/><path class="h" d="M501.281,95.187s-3.122,29.191-12.3,37.051a140.506,140.506,0,0,0,6.078-38.608"/><path class="f" d="M507,96.142l.8-5.536-2.839-5.383c0-17.1-15.915-30.958-35.546-30.958s-35.547,13.861-35.547,30.958L430.31,88.34l-.186,5.15.523,3.638s16.757-7.467,40.632-7.061c0,0,19.079-.5,30.928,5.678Z"/><path class="j" d="M433.309,96.142s29.731-13.4,68.9-.4"/><path class="h" d="M442.514,85.536c8.9-2.04,28.722-5.158,50.648.657"/><path class="h" d="M430.124,93.49l.186-5.15,3.558-3.117c0-17.1,15.915-30.958,35.547-30.958s35.546,13.861,35.546,30.958l2.839,5.383-.8,5.536"/><path class="f" d="M517.581,261.9l-21.976-2.595-18.119,9.955s-1.626,5.556,4.872,4.683l9.075-5.59,8.745,1.454,1.485,3-11.322,4.421-9.677,8.93s-1.659,3.914,3.874,3.711c0,0-.493,8.245,9.37,3.339,0,0,.016,7.531,7.464,3.614l6.777-3.73,17.147-4.91s6.611-10.515,1.686-19.833l-4.148-4.992Z"/><path class="j" d="M488.118,151.148l33.1,9.684a28.886,28.886,0,0,1,8.434,4.218,47.523,47.523,0,0,1,12.033,12.881l32,50.053s9.37,15.074-3.943,26.578l-40,31.3"/><line class="j" x1="541.864" y1="230.367" x2="520.02" y2="206.486"/><line class="j" x1="550.171" y1="227.638" x2="516.944" y2="259.305"/><path class="j" d="M546.971,211.01a39.659,39.659,0,0,0-1.713,16.411"/><path class="h" d="M527.328,283.922s6.23-15.569-8.633-21.607"/><path class="h" d="M514.494,261.79l-19.249-1.866a4.068,4.068,0,0,0-2.508.5l-14.707,8.35a1.74,1.74,0,0,0-.882,1.445c-.052,1.3.417,3.435,3.877,3.949a2.239,2.239,0,0,0,1.333-.223l11.044-5.59,6.776,1.454"/><path class="h" d="M503.675,271.95,491.5,277.157l-9.952,7.816a2.29,2.29,0,0,0-.7,2.707,3.668,3.668,0,0,0,2.324,2.075,2.5,2.5,0,0,0,2.175-.326l7.74-5.251a10.045,10.045,0,0,1,3-1.379l8.42-3.144"/><path class="h" d="M485.792,290.607s-.556,2.988,1.639,3.925a2.925,2.925,0,0,0,2.485-.148l9.322-4.863,8.911-3.663"/><path class="h" d="M493.908,293.212a6.472,6.472,0,0,0,.729,2.539c1,1.882,2.489,1.841,4.477,1.072l8.59-3.6,17.968-5.687"/><path class="h" d="M454.517,153.116s2.141,39.582,15.033,62.632l1.1,89.8"/><path class="h" d="M485.849,151.148s-3.715,47.379-13.037,61.541"/><path class="h" d="M454.919,157.445s12.164,7.179,29.445.579"/><path class="f" d="M385.931,121.965a14.9,14.9,0,0,1,4.833-5.161,2.152,2.152,0,0,1,2.042-.089l5.814,2.754a2.76,2.76,0,0,1,.168,4.52,4.905,4.905,0,0,1-2.333.595,2.89,2.89,0,0,1-1.3-.278l-4.2-1.929-3.718,1.309Z"/><path class="f" d="M395.16,117.107a20.578,20.578,0,0,1,3.01-2.619,2.155,2.155,0,0,1,2.042-.089l5.814,2.755a2.759,2.759,0,0,1,.168,4.519,4.882,4.882,0,0,1-2.333.595,2.89,2.89,0,0,1-1.3-.278l-.711-.326-6.462-.757Z"/><path class="f" d="M404.067,115.513a11.636,11.636,0,0,1,2.615-2.145,2.155,2.155,0,0,1,2.042-.089l5.814,2.755a2.759,2.759,0,0,1,.168,4.519,4.882,4.882,0,0,1-2.333.595,2.89,2.89,0,0,1-1.3-.278l-2.433-1.116-3.815-.628Z"/><path class="f" d="M411.827,114.184a11.952,11.952,0,0,1,2.853-2.408,2.157,2.157,0,0,1,2.043-.089l5.814,2.755a2.759,2.759,0,0,1,.168,4.519,4.886,4.886,0,0,1-2.334.595,2.889,2.889,0,0,1-1.3-.278l-1.743-.8-3.921.351Z"/><path class="h" d="M395.16,117.107a20.578,20.578,0,0,1,3.01-2.619,2.155,2.155,0,0,1,2.042-.089l5.814,2.755a2.759,2.759,0,0,1,.168,4.519,4.882,4.882,0,0,1-2.333.595,2.89,2.89,0,0,1-1.3-.278l-1.985-.476"/><path class="h" d="M404.067,115.513a11.636,11.636,0,0,1,2.615-2.145,2.155,2.155,0,0,1,2.042-.089l5.814,2.755a2.759,2.759,0,0,1,.168,4.519,4.882,4.882,0,0,1-2.333.595,2.89,2.89,0,0,1-1.3-.278l-2.975-1.206"/><path class="h" d="M411.827,114.184a11.952,11.952,0,0,1,2.853-2.408,2.157,2.157,0,0,1,2.043-.089l5.814,2.755a2.759,2.759,0,0,1,.168,4.519,4.886,4.886,0,0,1-2.334.595,2.889,2.889,0,0,1-1.3-.278l-3.27-1.249"/><path class="h" d="M385.931,123.965l5.016-1.077,4.207,1.418a2.89,2.89,0,0,0,1.3.278,4.905,4.905,0,0,0,2.333-.595,2.76,2.76,0,0,0-.168-4.52l-5.814-2.754a2.152,2.152,0,0,0-2.042.089c-2.992,1.738-5.9,6.266-5.9,6.266"/><path class="h" d="M370.745,168.376,356.92,206.618a16.24,16.24,0,0,0,1.269,13.458c3.094,5.242,9.209,10.249,21.026,5.915a15.378,15.378,0,0,0,9.5-10.6l10.628-47.012"/><line class="h" x1="391.962" y1="217.839" x2="417.602" y2="200.174"/><line class="h" x1="399.344" y1="171.368" x2="415.937" y2="163.072"/><path class="h" d="M439.651,485.826s17.7.248,26.163,0"/><path class="h" d="M514.718,484.344c-.051.007-20.543.327-29.29.6"/><path class="g" d="M313.82,138.586s13.961-2.9,16.129,10.2a6.967,6.967,0,0,0,1.767,3.71c1.424,1.486,3.929,2.955,8,2.044a.66.66,0,0,1,.806.736c-.292,1.762.96,10.331-6.969,8.443L301,162.184l-2.6-16.389,7.2-5.941Z"/><path class="e" d="M246.852,168.977l9.219,58.536,2.388,26.967-.138,70.139c.307,2.466,51.361,4.6,81.21-2.918,2.585-.651.741-66.464.741-66.464l-1.044-32.75,7.722-48.626-29.606-15.8-40.232-.411Z"/><polygon class="f" points="283.621 140.736 282.808 156.825 279.466 160.446 297.84 209.087 312.182 160.008 309.304 153.936 308.257 136.888 283.621 140.736"/><polygon class="e" points="345.322 173.057 336.91 223.505 346.95 250.429 367.525 242.895 361.38 220.265 354.753 189.818 348.482 177.054 345.322 173.057"/><path class="h" d="M244.415,565s16.889,6.743,28.444-2.877a9.885,9.885,0,0,0,2.5-2.569c2.009-3.588,8.134-12.872,19.049-15.778,0,0,5.609-1.636,7.308-8.763"/><path class="h" d="M269.169,530.606s-15.63,19.714-24.912,24.42a10,10,0,0,0-3.138,2.4c-2.545,3-5.487,9.045,6.761,13.319,0,0,13.914,4.726,28.569-5.6a6.445,6.445,0,0,0,1.989-2.049c1.81-3.248,7.622-12.259,18.116-15.991,0,0,10.128-4.628,2.66-19.125"/><path class="d" d="M346.442,528.812s10.771,17.934,23.178,25.307a8.881,8.881,0,0,1,4.293,5.259c.984,3.861,1.074,9.786-5.778,13.339a12.057,12.057,0,0,1-4.261,1.242c-4.882.514-17.251.872-25.865-7.1a4.3,4.3,0,0,1-1-1.356c-1.2-2.633-5.942-12.207-13.214-16.792,0,0-10.149-5.461-7.261-16.489l.12-15.966,25.5-3.5Z"/><path class="h" d="M316.654,540.142s13.362,2.818,23.29,19.161c0,0,4.421,12.227,20.721,11.509,0,0,8.129.769,13.519-5.559"/><path class="d" d="M299.214,527.014l-3.562-4.821V511.9l-25.244.981-1.239,17.73s-15.63,19.714-24.912,24.42a10,10,0,0,0-3.138,2.4c-2.545,3-5.487,9.045,6.761,13.319,0,0,13.914,4.726,28.569-5.6a6.445,6.445,0,0,0,1.989-2.049c1.81-3.248,7.622-12.259,18.116-15.991,0,0,10.128-4.628,2.66-19.125Z"/><path class="h" d="M244.415,565s16.889,6.743,28.444-2.877a9.885,9.885,0,0,0,2.5-2.569c2.009-3.588,8.134-12.872,19.049-15.778,0,0,5.609-1.636,7.308-8.763"/><path class="h" d="M269.169,530.606s-15.63,19.714-24.912,24.42a10,10,0,0,0-3.138,2.4c-2.545,3-5.487,9.045,6.761,13.319,0,0,13.914,4.726,28.569-5.6a6.445,6.445,0,0,0,1.989-2.049c1.81-3.248,7.622-12.259,18.116-15.991,0,0,10.128-4.628,2.66-19.125"/><path class="h" d="M346.442,528.812s10.771,17.934,23.178,25.307a8.881,8.881,0,0,1,4.293,5.259c.984,3.861,1.074,9.786-5.778,13.339a12.057,12.057,0,0,1-4.261,1.242c-4.882.514-17.251.872-25.865-7.1a4.3,4.3,0,0,1-1-1.356c-1.2-2.633-5.942-12.207-13.214-16.792,0,0-10.149-5.461-7.261-16.489"/><path class="h" d="M316.654,540.142s13.362,2.818,23.29,19.161c0,0,4.421,12.227,20.721,11.509,0,0,8.129.769,13.519-5.559"/><path class="e" d="M346.6,523.443c-1.271-18.429-4.442-195.792-4.442-195.792l-2.532-8.6-80.566,1.98-.74,6.618s7.156,179.391,7.3,197.877c0,0,25.741-.677,31.434.38l1.351-1.6c.44-28.522,1.406-154.626,1.406-154.626l3.421-.2c-.546-6.415,6.289,102.677,12.224,156.425l.561,2.9,4.663-.831a89.248,89.248,0,0,1,22.786-2.234l3.135.161Z"/><path class="h" d="M292.927,526.217a97.3,97.3,0,0,0-23.758.071"/><path class="h" d="M340.272,193.653s-6.39,44.17-6.724,57.668"/><path class="m" d="M284.93,146.338s11.091,6.747,21.672-.252l2.385-1.448.291,11.467s-19.128,1.881-24.348-3.882Z"/><path class="j" d="M308.887,143.8a87,87,0,0,0,.834,12.258"/><path class="f" d="M264.613,115.061s-12.035-44.328,24.875-41.393l23.932,6.709,3.869,34.684Z"/><path class="f" d="M267.806,94.584s-2,16.238.723,20.891c0,0-7.29-5.026-8.407,4.026,0,0,1.606,16.791,12.976,12.229,0,0,7.4,18.059,23.114,17.409,0,0,17.873-1.768,21.552-20.123,0,0,5.181,6.6,10.162-4.32,0,0,9.11-13.656-4.78-11.964l.909-16.813L304.964,82.732l-25.66-.94Z"/><path class="g" d="M288.652,74.817c14.632-11.37,29.54,2.378,29.54,2.378,19.124,17.471,9.152,33.638,9.152,33.638l-2.3,1.215c-9.681-3.045-19.449-20.9-19.449-20.9L301.3,92.292c-3.076,8.405-7,10.748-7,10.748-7.674,6.83-15.407,4.611-15.407,4.611-2.092,2.323-7.16,4.016-7.16,4.016l-4.634,2.6-4.222-.137c-2.458-6.924-2.281-17.442-2.281-17.442,4.551-16.429,27.5-21.859,27.5-21.859Z"/><path class="j" d="M318.919,121.168s.277,14.2-8.7,20.908c0,0-7.209,6.917-14.21,7.054-7,.247-13.858-5.613-13.858-5.613-9.328-6.2-10.094-21.063-10.094-21.063"/><path class="j" d="M268.529,115.475s-2.482-3.456-6.84-.722c0,0-4.32,4.1,1.359,12.239,0,0,5.931,9.647,9.7,3.843"/><path class="j" d="M321.511,114.02s2.289-3.586,6.79-1.095c0,0,4.539,3.853-.685,12.294,0,0-5.393,9.958-9.476,4.37"/><path class="j" d="M302.556,91.957s-7.066,15.952-20.764,16.408"/><path class="j" d="M284.83,94.293s-5.025,13.255-13.685,17.495"/><path class="j" d="M305.6,91.144a29.35,29.35,0,0,0,15.758,19.082"/><path class="j" d="M305.411,105.8a9.45,9.45,0,0,1,5.692,1.414"/><line class="j" x1="296.532" y1="126.472" x2="295.507" y2="126.456"/><path class="i" d="M307.152,118.21h0a2.526,2.526,0,0,1-2.587-2.449h0a2.526,2.526,0,0,1,2.449-2.587h0a2.526,2.526,0,0,1,2.586,2.449h0A2.526,2.526,0,0,1,307.152,118.21Z"/><path class="i" d="M283.828,118.85h0a2.526,2.526,0,0,1-2.587-2.449h0a2.526,2.526,0,0,1,2.449-2.586h0a2.526,2.526,0,0,1,2.586,2.448h0A2.525,2.525,0,0,1,283.828,118.85Z"/><path class="h" d="M289.037,132.938s7.312,7.515,15.184-.66"/><path class="h" d="M255.987,225.415c.946,10.34,2.414,27.145,2.976,34.641q.228,3.039.174,6.085c-.151,8.742-.363,34.243-.23,39.839"/><path class="h" d="M303.232,369.484c-.546-6.415,6.289,102.677,12.224,156.425"/><path class="h" d="M341.182,321.7s4.148,183.313,5.419,201.742"/><path class="h" d="M320.68,527.981a89.248,89.248,0,0,1,22.786-2.234"/><path class="h" d="M300.078,340.317s-1.233,155.47-1.673,183.992"/><path class="h" d="M258.668,322.631s6.809,184.411,6.952,202.9"/><path class="h" d="M292.927,526.217a97.3,97.3,0,0,0-23.758.071"/><path class="h" d="M303.232,361.35s1.65.879,9.049-14.513"/><line class="j" x1="261.582" y1="107.209" x2="262.652" y2="112.855"/><line class="j" x1="328.957" y1="107.871" x2="328.059" y2="111.55"/><path class="h" d="M269.169,530.606a22.759,22.759,0,0,1,14.529,1.807"/><path class="h" d="M264.541,536.625a22.763,22.763,0,0,1,14.529,1.806"/><path class="h" d="M332.968,534.558s4.68-3.759,13.633-2.906"/><path class="h" d="M337.075,540.3s4.68-3.759,13.633-2.906"/><path class="j" d="M313.82,138.586s13.961-2.9,16.129,10.2a6.967,6.967,0,0,0,1.767,3.71c1.424,1.486,3.929,2.955,8,2.044a.66.66,0,0,1,.806.736c-.292,1.762-1.089,9.125-9.018,7.237"/><path class="h" d="M273.068,488.988s12.957,13.564,17.969,30.032"/><path class="h" d="M320.68,519.02s5.9-15.036,16.23-20.406"/><polyline class="h" points="260.122 204.76 286.13 200.275 286.991 205.267 273.969 213.295 260.942 209.353"/><line class="h" x1="274.095" y1="214.564" x2="275.558" y2="229.257"/><polyline class="h" points="261.133 214.793 264.177 235.38 277.664 233.53"/><path class="h" d="M340.3,269.611s.59,21.7.685,34.123"/><path class="h" d="M262.144,307.574s11.458.652,35.092,0"/><path class="h" d="M337.88,307.574s-11.865.29-33.047,0"/><line class="h" x1="258.86" y1="310.304" x2="258.784" y2="319.463"/><line class="h" x1="341.182" y1="308.96" x2="341.019" y2="317.657"/><path class="h" d="M263.121,320.933s36.894,3.95,73.789-1.88"/><line class="h" x1="299.417" y1="270.659" x2="300.275" y2="303.738"/><path class="j" d="M283.621,154.6a55.537,55.537,0,0,0,0-9.4"/><path class="e" d="M293.7,192.065C286.13,180.21,283.621,154.6,283.621,154.6l-5.957,1.457-7.588,21.873a3.252,3.252,0,0,0,1.123,3.67l17.838,13.351,4.66,1.789Z"/><path class="e" d="M302.8,193.1c7.567-11.854,7.722-36.594,7.722-36.594l5.792-.451,7.588,21.873a3.253,3.253,0,0,1-1.124,3.67l-17.838,13.351-4.66,1.789Z"/><path class="j" d="M283.621,154.6s1.14,25.913,8.707,37.767"/><path class="j" d="M275.558,161.468l.887-3.2a1.771,1.771,0,0,1,1.146-1.249l2.506-.853"/><path class="j" d="M310.523,156.509s-.706,24.005-8.274,35.859"/><path class="f" d="M329.339,265.9l-48.375-.009a3.161,3.161,0,0,1-3.186-4.109l15.969-67.167a5.561,5.561,0,0,1,5.14-4.107l48.374.009a3.162,3.162,0,0,1,3.187,4.109L334.479,261.8A5.565,5.565,0,0,1,329.339,265.9Z"/><path class="n" d="M329.339,265.9l-48.375-.009a3.161,3.161,0,0,1-3.186-4.109l15.969-67.167a5.561,5.561,0,0,1,5.14-4.107l48.374.009a3.162,3.162,0,0,1,3.187,4.109L334.479,261.8A5.565,5.565,0,0,1,329.339,265.9Z"/><path class="f" d="M309.384,219.339c-.085-.112-9.357-6.579-9.357-6.579-1-.943-1.379-1.556-2.791.244-.851,1.086.4,3.17,1.409,4.114l2.963,3.086.4,2.533s-3.449-1.848-4.5-2.517a73.511,73.511,0,0,1-6.937-5c-1.712-1.17-3.574-1.282-4.493-.541a2.532,2.532,0,0,0-.6,3.448,2.8,2.8,0,0,0-1.548,3.669l.047.092a2.912,2.912,0,0,0-1.3,3.9c.018.037.087.172.2.376-1.439.716-2.1,2-1.311,3.9a26.027,26.027,0,0,0,10.067,9.646c.025.013,18.691,4.22,24.146,3.185l3.77-11.185Z"/><path class="h" d="M335.209,258.724l-.73,3.072a5.565,5.565,0,0,1-5.14,4.108l-48.375-.009a3.161,3.161,0,0,1-3.186-4.109l6.136-23.562"/><line class="h" x1="285.989" y1="218.148" x2="292.633" y2="223.505"/><line class="h" x1="283.914" y1="221.919" x2="290.559" y2="227.276"/><line class="h" x1="282.808" y1="226.342" x2="289.452" y2="231.699"/><path class="h" d="M316.952,229.107l-7.568-9.768c-.079-.1-8.166-5.748-9.357-6.579-.1-.068-2-.911-3.085.244-.946,1,.084,2.942,1.09,3.886l3.576,3.314.4,2.533s-3.449-1.848-4.5-2.517a73.511,73.511,0,0,1-6.937-5c-1.712-1.17-3.574-1.282-4.493-.541a2.532,2.532,0,0,0-.6,3.448,2.8,2.8,0,0,0-1.548,3.669l.047.092a2.912,2.912,0,0,0-1.3,3.9c.018.037.087.172.2.376-1.439.716-2.1,2-1.311,3.9.453,1.1,4.521,6.694,10.381,9.735.024.012,12.218,2.283,18.754,2.828"/><path class="h" d="M290.076,210.058l3.671-15.439a5.561,5.561,0,0,1,5.14-4.107l48.374.009a3.162,3.162,0,0,1,3.187,4.109l-10.365,43.594"/><polyline class="h" points="301.766 196.436 313.222 196.436 315.665 200.77 329.703 201.013 333.08 196.436 342.357 196.436"/><path class="e" d="M367,238.224c.93,8.16,1.608,14.981,1.608,14.981.131,11.491-11.229,14.363-11.229,14.363-7.182,2.873-31.981-7.834-31.981-7.834-3.776-1.828-3.355-3.265-3.355-3.265l-1.727-3.264-6.914-5.444s5.857-13.578,7.074-18.5l10,2.442,3.065-.562s3.864,1.242,8.809,3.288l12.4,6.151Z"/><path class="h" d="M317.686,251.321l-3.791-3.05a2.831,2.831,0,0,1-.446-3.97,34.885,34.885,0,0,0,6.459-14.049,2,2,0,0,1,2.488-1.47l3.867,1.069"/><path class="h" d="M320.319,253.205s8.988-9.453,10.164-21.506"/><path class="j" d="M322.046,256.469s-.421,1.437,3.355,3.265c0,0,24.8,10.707,31.981,7.834,0,0,8.7-2.2,10.784-10.447a12.964,12.964,0,0,0,.072-5.764c-2.107-10.327-12.672-60.937-20.225-75.173a8.293,8.293,0,0,0-3.78-3.449l-22.784-13.684"/><path class="h" d="M333.548,231.137s12.4,3.987,21.2,9.439"/><path class="e" d="M239.228,191.752s7.06,5.649,18.436,2.064l.8,3.21-3.109,10.784.958,5.284-7.888,36.573s-8.951,12.169-20.842,5.924c0,0-12.969-7.421-9.146-21.251l11.168-32.9,3.5-1.658,3.92-9.9Z"/><polygon class="f" points="238.548 169.244 237.981 176.173 241.539 192.153 254.295 194.856 258.585 184.149 264.339 178.833 266.834 168.216 263.792 156.509 244.479 159.613 238.548 169.244"/><path class="o" d="M271.166,160.749l-4.385,5.447-30.152-21.908a3.492,3.492,0,0,1-.668-5.015h0a3.492,3.492,0,0,1,4.773-.635Z"/><path class="i" d="M278.49,168.448l-7.324-8.614-5.018,6.855,11.376,3.071A.874.874,0,0,0,278.49,168.448Z"/><path class="f" d="M242.619,161.532s-2.213-4.9,2.733-6.514l15.883,3.341,4.679,5.408s-1.358,2.551-5.237,2.205l-8.047-3.589Z"/><path class="f" d="M240.5,167.981s-2.213-4.9,2.733-6.513l15.883,3.34,4.679,5.408s-1.358,2.551-5.238,2.2l-8.046-3.589Z"/><path class="f" d="M239.042,175.491s-2.213-4.9,2.733-6.514l9.667.468,8.5,4.582s1.224,4.942-2.656,4.6l-8.229-2.282Z"/><path class="f" d="M246.384,153.465s-1.032-5.39,3.818-6.216l9.359,3.7,7.4,5.172s.84,4.242-4.081,4.012L250.2,155.018Z"/><path class="h" d="M246.422,152.988s-.457-3.1,1.787-4.832a3.513,3.513,0,0,1,3.461-.413l8.99,3.653a3.308,3.308,0,0,1,1.046.677l4.338,4.147s1.195,2.386-2.259,2.806a3.442,3.442,0,0,1-2.1-.413l-4.4-2.47-6.939-2.163"/><path class="h" d="M242.619,159.809s-1.376-5.208,3.573-5.4l10.842,2.808,7.112,4.515a1.619,1.619,0,0,1,.533,2.185,3.784,3.784,0,0,1-3,1.916,2.979,2.979,0,0,1-1.533-.264l-6.912-3.14-7.043-.9"/><path class="h" d="M240.171,166.813s-1.125-5.281,2.448-5.281l10.616.9,8.053,3.829a2.757,2.757,0,0,1,1.513,3.142,2.6,2.6,0,0,1-2.549,2.061,4.4,4.4,0,0,1-2.14-.4l-6.041-2.686-7.383-.651"/><path class="h" d="M242.443,189.389s-6.014-9.372-4.078-18.922a3.043,3.043,0,0,1,3.2-2.186l8.449.35a7.874,7.874,0,0,1,2.743.615l5.782,2.44a2.24,2.24,0,0,1,1.4,2.341c-.116.784-.665,1.594-2.266,1.963a5.02,5.02,0,0,1-2.258-.025l-6.485-1.507-4.935.214"/><path class="h" d="M257.425,184.033c-.51,3.543-.771,4.286-2.069,6.74"/><path class="j" d="M240,191.839s5.968,7.195,16.2,2.569"/><path class="h" d="M237.023,189.878l-3.92,9.9a3.238,3.238,0,0,0,.487,3.258c2.543,3.118,9.287,9.376,20.248,5.517a3.59,3.59,0,0,0,2.278-2.484l3.419-11.216"/><path class="h" d="M229.606,201.439l-11.168,32.9a15.437,15.437,0,0,0-.809,5.68c.245,5.22,2.269,14.513,13.325,16.49,0,0,12.964,2.672,18-9.676a11.856,11.856,0,0,0,.614-2.02l6.866-32.283"/><polyline class="h" points="272.75 172.453 268.09 187.806 281.055 186.452 290.076 195.959"/><path class="h" d="M312.834,187.9l1.373-1.447,12.966,1.354-9.429-29.571a2.168,2.168,0,0,0-1.864-1.5l-2.433-.227"/><path class="h" d="M283.824,159.051s5.955,6.429,12.2,8.577l-6.007,8.771"/><path class="h" d="M309.721,159.051s-5.936,6.9-12.013,8.585l6.821,8.405"/><path class="f" d="M333.8,103.7l.807-5.594-2.868-5.438c0-17.276-16.079-31.28-35.915-31.28s-35.915,14-35.915,31.28l-3.595,3.148-.188,5.2.528,3.676s16.931-7.545,41.054-7.135c0,0,19.277-.5,31.249,5.738Z"/><path class="e" d="M264.309,101.9l8.441-2.186s.312,32.538,5.077,39.648C277.827,139.358,266.834,133.657,264.309,101.9Z"/><path class="e" d="M326.554,101.68l-8.441-2.187s-.313,32.538-5.078,39.649C313.035,139.142,324.028,133.44,326.554,101.68Z"/><path class="j" d="M259.344,103.7s30.04-13.541,69.613-.4"/><path class="h" d="M268.644,92.981c8.993-2.06,29.02-5.211,51.174.665"/><path class="h" d="M264.811,102.264s1.622,25.569,11.6,35.352a91.365,91.365,0,0,1-3.66-37.455"/><path class="h" d="M325.205,102.827s-1.952,27.018-10.821,34.789c0,0,6.226-14.419,3.756-36.6"/><path class="h" d="M256.126,101.018l.188-5.2,3.595-3.148c0-17.276,16.08-31.28,35.915-31.28s35.915,14,35.915,31.28l2.868,5.438L333.8,103.7"/><path class="i" d="M260.6,183.337a1.673,1.673,0,0,1-.812-3.137c.22-.125,4.779-2.813,5.378-10.538a1.674,1.674,0,0,1,3.337.259c-.749,9.643-6.845,13.071-7.1,13.212A1.669,1.669,0,0,1,260.6,183.337Z"/></svg>