<svg xmlns="http://www.w3.org/2000/svg" viewBox="0 0 200 100"><path fill="#f8daac" d="M100,5.59,188.82,50,100,94.41,11.18,50,100,5.59M100,0,0,50l100,50L200,50,100,0ZM68.9,26.185h7.479V73.779H68.9ZM80.662,62.492v-2.72h7.071v3.264c0,3.4,1.5,4.624,3.875,4.624s3.876-1.223,3.876-4.76c0-3.943-1.5-6.459-6.392-10.743-6.255-5.507-8.3-9.382-8.3-14.822,0-7.479,3.876-11.831,11.151-11.831s10.879,4.352,10.879,11.967v1.972H95.756V37c0-3.4-1.36-4.692-3.74-4.692s-3.739,1.292-3.739,4.555c0,3.468,1.563,5.984,6.459,10.267,6.255,5.508,8.227,9.315,8.227,15.23,0,7.751-3.943,12.1-11.287,12.1S80.662,70.107,80.662,62.492Zm26.586-36.307h7.48V46.243l9.519-20.058h7.479l-8.908,17.474,9.044,30.12h-7.819L117.72,52.565l-2.992,6.052V73.779h-7.48Z"/></svg>